<svg height="512" viewBox="0 0 64 64" width="512" xmlns="http://www.w3.org/2000/svg"><g data-name="Break System"><rect fill="#c6c5ca" height="18" rx="2" width="10" x="48" y="43"/><rect fill="#c6c5ca" height="18" rx="2" width="10" x="48" y="3"/><path d="M16 10h32v4H16zm22 4h3v36h-3zm-15 0h3v36h-3z" fill="#e0e0e2"/><rect fill="#c6c5ca" height="18" rx="2" width="10" x="6" y="43"/><rect fill="#c6c5ca" height="18" rx="2" width="10" x="6" y="3"/><path d="M58 45v14a2.006 2.006 0 01-2 2h-4a2.006 2.006 0 002-2V45a2.006 2.006 0 00-2-2h4a2.006 2.006 0 012 2zm0-40v14a2.006 2.006 0 01-2 2h-4a2.006 2.006 0 002-2V5a2.006 2.006 0 00-2-2h4a2.006 2.006 0 012 2zM16 45v14a2.006 2.006 0 01-2 2h-4a2.006 2.006 0 002-2V45a2.006 2.006 0 00-2-2h4a2.006 2.006 0 012 2zm0-40v14a2.006 2.006 0 01-2 2h-4a2.006 2.006 0 002-2V5a2.006 2.006 0 00-2-2h4a2.006 2.006 0 012 2z" fill="#acabb1"/><circle cx="32" cy="32" fill="#ff3051" r="10"/><path d="M42 32a10 10 0 01-18.78 4.78A9.9 9.9 0 0028 38a10 10 0 0010-10 9.9 9.9 0 00-1.22-4.78A9.984 9.984 0 0142 32z" fill="#cd2a00"/><path d="M35.46 10A3.993 3.993 0 1132 8a3.989 3.989 0 013.46 2z" fill="#ffde55"/><path d="M16 50h32v4H16z" fill="#e0e0e2"/><path d="M16 10h3v4h-3zm0 40h3v4h-3z" fill="#c6c5ca"/><path d="M35.46 50A3.993 3.993 0 1132 48a3.989 3.989 0 013.46 2z" fill="#ffde55"/><path d="M31 25h2v10h-2zm0 12h2v2h-2zM8 46h2v12H8zm4 0h2v12h-2zm42 0h2v12h-2zm-4 0h2v12h-2zM8 6h2v12H8zm4 0h2v12h-2z"/><path d="M50 22h6a3.009 3.009 0 003-3V5a3.009 3.009 0 00-3-3h-6a3.009 3.009 0 00-3 3v4H35.97a4.94 4.94 0 00-7.94 0H17V5a3.009 3.009 0 00-3-3H8a3.009 3.009 0 00-3 3v14a3.009 3.009 0 003 3h6a3.009 3.009 0 003-3v-4h5v12.44a10.9 10.9 0 000 9.12V49h-5v-4a3.009 3.009 0 00-3-3H8a3.009 3.009 0 00-3 3v14a3.009 3.009 0 003 3h6a3.009 3.009 0 003-3v-4h11.03a4.94 4.94 0 007.94 0H47v4a3.009 3.009 0 003 3h6a3.009 3.009 0 003-3V45a3.009 3.009 0 00-3-3h-6a3.009 3.009 0 00-3 3v4h-5V36.56a10.9 10.9 0 000-9.12V15h5v4a3.009 3.009 0 003 3zM49 5a1 1 0 011-1h6a1 1 0 011 1v14a1 1 0 01-1 1h-6a1 1 0 01-1-1zM15 19a1 1 0 01-1 1H8a1 1 0 01-1-1V5a1 1 0 011-1h6a1 1 0 011 1zm0 40a1 1 0 01-1 1H8a1 1 0 01-1-1V45a1 1 0 011-1h6a1 1 0 011 1zm34-14a1 1 0 011-1h6a1 1 0 011 1v14a1 1 0 01-1 1h-6a1 1 0 01-1-1zM32 9a3 3 0 11-3 3 3.009 3.009 0 013-3zm0 8a4.952 4.952 0 003.97-2H37v7.21a10.936 10.936 0 00-10 0V15h1.03A4.952 4.952 0 0032 17zm9 15a9 9 0 11-9-9 9.014 9.014 0 019 9zm-2-8.48V15h1v9.47a12.872 12.872 0 00-1-.95zm1 16.01V49h-1v-8.52a12.872 12.872 0 001-.95zm-15 .95V49h-1v-9.47a12.872 12.872 0 001 .95zm-1-16.01V15h1v8.52a12.872 12.872 0 00-1 .95zM17 13v-2h10.1a5.05 5.05 0 000 2zm10.1 40H17v-2h10.1a5.05 5.05 0 000 2zm4.9 2a3 3 0 113-3 3.009 3.009 0 01-3 3zm0-8a4.952 4.952 0 00-3.97 2H27v-7.21a10.936 10.936 0 0010 0V49h-1.03A4.952 4.952 0 0032 47zm15 4v2H36.9a5.05 5.05 0 000-2zM36.9 13a5.05 5.05 0 000-2H47v2z"/><path d="M54 6h2v12h-2zm-4 0h2v12h-2z"/></g></svg>