<svg xmlns="http://www.w3.org/2000/svg" viewBox="0 0 64 64" width="512" height="512"><path d="M16 25h2v2h-2zm10 0h2v2h-2z"/><path d="M61.142 36.01l-3.907-.558a14 14 0 00-.657-1.6l2.364-3.152a1 1 0 00-.093-1.307l-4.243-4.243a.989.989 0 00-.606-.283v-9.626A8 8 0 0057 9a7.917 7.917 0 00-4.573-7.224A1 1 0 0051 2.68v5.6l-2 .667-2-.667v-5.6a1 1 0 00-1.427-.9A7.917 7.917 0 0041 9a8 8 0 003 6.241V22h-3a1 1 0 00-.99.858l-.647 4.529 1.98.283.524-3.67h4.266l.524 3.67a1 1 0 00.71.818 11.939 11.939 0 012.4.987 1 1 0 001.081-.077l2.961-2.22 3.016 3.016-2.225 2.961a1 1 0 00-.077 1.081 11.939 11.939 0 01.987 2.4 1 1 0 00.818.71l3.67.524v4.266l-3.67.524a1 1 0 00-.818.71 11.939 11.939 0 01-.987 2.4 1 1 0 00.077 1.081l2.22 2.961-3.016 3.016-2.959-2.228a1 1 0 00-1.081-.077 11.939 11.939 0 01-2.4.987 1 1 0 00-.71.818L46.133 56H42v-4.229a11.1 11.1 0 00-.45-3.121 9.11 9.11 0 10-6.394-7.062c-.024-.01-.047-.022-.071-.031L27 38.323v-1.537A11.089 11.089 0 0030.479 34H33a3 3 0 003-3v-2.184A3 3 0 0038 26v-3a3 3 0 00-2-2.816V19a14 14 0 00-28 0v1.184A3 3 0 006 23v3a3 3 0 003 3h2c.064 0 .126-.01.189-.014a11.023 11.023 0 005.811 7.8v1.537l-8.085 3.234A10.949 10.949 0 002 51.771V61a1 1 0 001 1h38a1 1 0 001-1v-3h5a1 1 0 00.99-.858l.558-3.907a14 14 0 001.6-.657l3.152 2.364a1 1 0 001.307-.093l4.243-4.243a1 1 0 00.093-1.307l-2.364-3.152a14 14 0 00.657-1.6l3.907-.558A1 1 0 0062 43v-6a1 1 0 00-.858-.99zm-11-8.588c-.047-.023-.1-.038-.147-.06V15H48v7.93l-.01-.072A1 1 0 0047 22h-1v-7.26a1 1 0 00-.429-.821A6 6 0 0145 4.522V9a1 1 0 00.684.949l3 1a1 1 0 00.632 0l3-1A1 1 0 0053 9V4.522a6 6 0 01-.571 9.4 1 1 0 00-.429.818v11.293zM37 40a7.05 7.05 0 113.333 5.941 10.916 10.916 0 00-2.611-2.877A6.836 6.836 0 0137 40zm-4-8h-1.214a10.9 10.9 0 001.025-3.014c.063 0 .125.014.189.014h1v2a1 1 0 01-1 1zm-2-11a3.015 3.015 0 01-2.4-1.2l-1.8-2.4a1 1 0 00-.674-.392 1.011 1.011 0 00-.751.211L22.019 19.9A5.018 5.018 0 0118.9 21H13v-1a9 9 0 0118 0zm5 5a1 1 0 01-1 1h-2v-5h2a1 1 0 011 1zM22 7a12.013 12.013 0 0112 12v1h-1a11 11 0 00-22 0h-1v-1A12.013 12.013 0 0122 7zM9 27a1 1 0 01-1-1v-3a1 1 0 011-1h2v5zm4 0v-4h5.9a7.024 7.024 0 004.372-1.534l2.551-2.041L27 21a5.025 5.025 0 004 2v4a8.947 8.947 0 01-1.522 5H22v2h5.644A8.991 8.991 0 0113 27zm9 11a10.966 10.966 0 003-.426V39a3 3 0 01-6 0v-1.426A10.966 10.966 0 0022 38zm18 22h-6V49h-2v11H12V49h-2v11H4v-8.229a8.958 8.958 0 015.658-8.357l7.563-3.025a4.968 4.968 0 009.558 0l7.563 3.025A8.958 8.958 0 0140 51.771z"/><path d="M43 26h2v2h-2zm0 26h2v2h-2zm8.777-2.807l1.414-1.415 1.415 1.415-1.415 1.414zM56 39h2v2h-2zm-4.222-8.192l1.414-1.414 1.414 1.414-1.414 1.414z"/></svg>