<svg xmlns="http://www.w3.org/2000/svg" width="33.25" height="34.531" viewBox="0 0 33.25 34.531">
  <defs>
    <style>
      .cls-1 {
        fill: #b82626;
        fill-rule: evenodd;
      }
    </style>
  </defs>
  <path id="Rectangle_550_copy_2" data-name="Rectangle 550 copy 2" class="cls-1" d="M3202.38,590.351a3.761,3.761,0,0,1,0,5.086l-25.64,27.338a3.227,3.227,0,0,1-4.77,0,3.782,3.782,0,0,1,0-5.086l25.64-27.338A3.227,3.227,0,0,1,3202.38,590.351Zm-29.54,0a3.782,3.782,0,0,0,0,5.086l25.64,27.338a3.227,3.227,0,0,0,4.77,0,3.761,3.761,0,0,0,0-5.086l-25.64-27.338A3.227,3.227,0,0,0,3172.84,590.351Z" transform="translate(-3171 -589.313)"/>
</svg>
