<?xml version="1.0" encoding="utf-8"?>
<!-- Generator: Adobe Illustrator 24.1.2, SVG Export Plug-In . SVG Version: 6.00 Build 0)  -->
<svg version="1.1" id="Layer_1" xmlns="http://www.w3.org/2000/svg" xmlns:xlink="http://www.w3.org/1999/xlink" x="0px" y="0px"
	 viewBox="0 0 200 200" style="enable-background:new 0 0 200 200;" xml:space="preserve">

			<path d="M144.59,49.43L102.31,8.04c-1.02-1.23-2.84-1.4-4.07-0.38c-0.14,0.11-0.26,0.24-0.38,0.38L55.58,49.43
				c-1.35,1.25-1.43,3.37-0.18,4.72c0.62,0.67,1.49,1.06,2.4,1.07h20.03v53.63c0.38,2.24,2.19,3.96,4.45,4.23h35.6
				c1.78,0,2.23-2.23,2.23-4.23V55.22h22.25c1.84-0.02,3.32-1.54,3.29-3.38C145.64,50.92,145.26,50.06,144.59,49.43z"/>
			<path d="M117.88,119.75h-35.6c-1.84,0-3.34,1.49-3.34,3.34c0,1.84,1.49,3.34,3.34,3.34h35.6c1.84,0,3.34-1.49,3.34-3.34
				C121.22,121.25,119.73,119.75,117.88,119.75z"/>
			<path d="M117.88,133.1h-35.6c-1.84,0-3.34,1.49-3.34,3.34s1.49,3.34,3.34,3.34h35.6c1.84,0,3.34-1.49,3.34-3.34
				S119.73,133.1,117.88,133.1z"/>
			<path d="M117.88,146.45h-35.6c-1.84,0-3.34,1.49-3.34,3.34c0,1.84,1.49,3.34,3.34,3.34h35.6c1.84,0,3.34-1.49,3.34-3.34
				C121.22,147.95,119.73,146.45,117.88,146.45z"/>

			<path d="M89.59,79.43L47.31,38.04c-1.02-1.23-2.84-1.4-4.07-0.38c-0.14,0.11-0.26,0.24-0.38,0.38L0.58,79.43
				c-1.35,1.25-1.43,3.37-0.18,4.72c0.62,0.67,1.49,1.06,2.4,1.07h20.03v53.63c0.38,2.24,2.19,3.96,4.45,4.23h35.6
				c1.78,0,2.23-2.23,2.23-4.23V85.22h22.25c1.84-0.02,3.32-1.54,3.29-3.38C90.64,80.92,90.26,80.06,89.59,79.43z"/>
			<path d="M62.88,149.75h-35.6c-1.84,0-3.34,1.49-3.34,3.34s1.49,3.34,3.34,3.34h35.6c1.84,0,3.34-1.49,3.34-3.34
				S64.73,149.75,62.88,149.75z"/>
			<path d="M62.88,163.1h-35.6c-1.84,0-3.34,1.49-3.34,3.34s1.49,3.34,3.34,3.34h35.6c1.84,0,3.34-1.49,3.34-3.34
				S64.73,163.1,62.88,163.1z"/>
			<path d="M62.88,176.45h-35.6c-1.84,0-3.34,1.49-3.34,3.34c0,1.84,1.49,3.34,3.34,3.34h35.6c1.84,0,3.34-1.49,3.34-3.34
				C66.22,177.95,64.73,176.45,62.88,176.45z"/>

			<path d="M198.59,79.43l-42.28-41.39c-1.02-1.23-2.84-1.4-4.07-0.38c-0.14,0.11-0.26,0.24-0.38,0.38l-42.28,41.39
				c-1.35,1.25-1.43,3.37-0.18,4.72c0.62,0.67,1.49,1.06,2.4,1.07h20.03v53.63c0.38,2.24,2.19,3.96,4.45,4.23h35.6
				c1.78,0,2.23-2.23,2.23-4.23V85.22h22.25c1.84-0.02,3.32-1.54,3.29-3.38C199.64,80.92,199.26,80.06,198.59,79.43z"/>
			<path d="M171.88,149.75h-35.6c-1.84,0-3.34,1.49-3.34,3.34s1.49,3.34,3.34,3.34h35.6c1.84,0,3.34-1.49,3.34-3.34
				S173.73,149.75,171.88,149.75z"/>
			<path d="M171.88,163.1h-35.6c-1.84,0-3.34,1.49-3.34,3.34s1.49,3.34,3.34,3.34h35.6c1.84,0,3.34-1.49,3.34-3.34
				S173.73,163.1,171.88,163.1z"/>
			<path d="M171.88,176.45h-35.6c-1.84,0-3.34,1.49-3.34,3.34c0,1.84,1.49,3.34,3.34,3.34h35.6c1.84,0,3.34-1.49,3.34-3.34
				C175.22,177.95,173.73,176.45,171.88,176.45z"/>

</svg>
